<?xml version="1.0" standalone="no"?>
<svg width="64" height="64" viewBox="0 0 425 384" version="1.1" xmlns="http://www.w3.org/2000/svg">
  <path d="M423 31c1 -2 2 -4 2 -7c0 -10 -9 -18 -19 -18v0h-388v0c-10 0 -18 8 -18 18c0 4 1 9 4 12v0l191 331h1c3 6 8 11 16 11c7 0 13 -3 16 -9l193 -334c0 -1 1 -1 1 -2l1 -2v0zM213 40c14 0 26 12 26 27s-12 26 -26 26c-15 0 -27 -11 -27 -26s12 -27 27 -27zM239 273v0v0v0v0 c0 6 -5 10 -11 10v0h-32v0c-5 0 -10 -4 -10 -10v-1v-144v0v0c0 -6 5 -11 11 -11h31v0v0c6 0 11 5 11 11v0v0v145z" transform="matrix(1,0,0,-1,0,384)"/>
</svg>